{"accessors":[{"bufferView":0,"componentType":5126,"count":24,"max":[0.5,0.5,0.5],"min":[-0.5,-0.5,-0.5],"normalized":false,"type":"VEC3"},{"bufferView":1,"componentType":5126,"count":24,"max":[1.0,0.0,1.0,1.0],"min":[-1.0,-0.0000152592547237873,-1.0,1.0],"normalized":false,"type":"VEC4"},{"bufferView":2,"componentType":5126,"count":24,"max":[1.0,1.0,1.0],"min":[-1.0,-1.0,-1.0],"normalized":false,"type":"VEC3"},{"bufferView":3,"componentType":5126,"count":24,"max":[1.0,1.0],"min":[0.0,0.0],"normalized":false,"type":"VEC2"},{"bufferView":4,"componentType":5123,"count":36,"max":[23.0],"min":[0.0],"normalized":false,"type":"SCALAR"},{"bufferView":5,"componentType":5126,"count":522,"max":[0.5,1.0,0.5],"min":[-0.5,-1.0,-0.5],"normalized":false,"type":"VEC3"},{"bufferView":6,"componentType":5126,"count":522,"max":[1.0,0.0,1.0,1.0],"min":[-1.0,-0.0000215795153053477,-1.0,1.0],"normalized":false,"type":"VEC4"},{"bufferView":7,"componentType":5126,"count":522,"max":[1.0,1.0,1.0],"min":[-1.0,-1.0,-1.0],"normalized":false,"type":"VEC3"},{"bufferView":8,"componentType":5126,"count":522,"max":[1.0,1.0],"min":[0.0,0.0],"normalized":false,"type":"VEC2"},{"bufferView":9,"componentType":5123,"count":2304,"max":[521.0],"min":[0.0],"normalized":false,"type":"SCALAR"},{"bufferView":10,"componentType":5126,"count":522,"max":[0.5,1.0,0.5],"min":[-0.5,-1.0,-0.5],"normalized":false,"type":"VEC3"},{"bufferView":11,"componentType":5126,"count":522,"max":[1.0,0.0,1.0,1.0],"min":[-1.0,-0.0000215795153053477,-1.0,1.0],"normalized":false,"type":"VEC4"},{"bufferView":12,"componentType":5126,"count":522,"max":[1.0,1.0,1.0],"min":[-1.0,-1.0,-1.0],"normalized":false,"type":"VEC3"},{"bufferView":13,"componentType":5126,"count":522,"max":[1.0,1.0],"min":[0.0,0.0],"normalized":false,"type":"VEC2"},{"bufferView":14,"componentType":5123,"count":2304,"max":[521.0],"min":[0.0],"normalized":false,"type":"SCALAR"},{"bufferView":15,"componentType":5126,"count":522,"max":[0.5,1.0,0.5],"min":[-0.5,-1.0,-0.5],"normalized":false,"type":"VEC3"},{"bufferView":16,"componentType":5126,"count":522,"max":[1.0,0.0,1.0,1.0],"min":[-1.0,-0.0000215795153053477,-1.0,1.0],"normalized":false,"type":"VEC4"},{"bufferView":17,"componentType":5126,"count":522,"max":[1.0,1.0,1.0],"min":[-1.0,-1.0,-1.0],"normalized":false,"type":"VEC3"},{"bufferView":18,"componentType":5126,"count":522,"max":[1.0,1.0],"min":[0.0,0.0],"normalized":false,"type":"VEC2"},{"bufferView":19,"componentType":5123,"count":2304,"max":[521.0],"min":[0.0],"normalized":false,"type":"SCALAR"},{"bufferView":20,"componentType":5126,"count":522,"max":[0.5,1.0,0.5],"min":[-0.5,-1.0,-0.5],"normalized":false,"type":"VEC3"},{"bufferView":21,"componentType":5126,"count":522,"max":[1.0,0.0,1.0,1.0],"min":[-1.0,-0.0000215795153053477,-1.0,1.0],"normalized":false,"type":"VEC4"},{"bufferView":22,"componentType":5126,"count":522,"max":[1.0,1.0,1.0],"min":[-1.0,-1.0,-1.0],"normalized":false,"type":"VEC3"},{"bufferView":23,"componentType":5126,"count":522,"max":[1.0,1.0],"min":[0.0,0.0],"normalized":false,"type":"VEC2"},{"bufferView":24,"componentType":5123,"count":2304,"max":[521.0],"min":[0.0],"normalized":false,"type":"SCALAR"},{"bufferView":25,"componentType":5126,"count":1950,"max":[0.5,1.0,0.5],"min":[-0.5,-1.0,-0.5],"normalized":false,"type":"VEC3"},{"bufferView":26,"componentType":5126,"count":1950,"max":[1.0,0.0,1.0,1.0],"min":[-1.0,-0.0000215795153053477,-1.0,1.0],"normalized":false,"type":"VEC4"},{"bufferView":27,"componentType":5126,"count":1950,"max":[1.0,1.0,1.0],"min":[-1.0,-1.0,-1.0],"normalized":false,"type":"VEC3"},{"bufferView":28,"componentType":5126,"count":1950,"max":[1.0,1.0],"min":[0.0,0.0],"normalized":false,"type":"VEC2"},{"bufferView":29,"componentType":5123,"count":10368,"max":[1949.0],"min":[0.0],"normalized":false,"type":"SCALAR"}],"asset":{"generator":"Godot Engine v4.5.stable.official@876b290332ec6f2e6d173d08162a02aa7e6ca46d","version":"2.0"},"bufferViews":[{"buffer":0,"byteLength":288,"byteStride":12,"target":34962},{"buffer":0,"byteLength":384,"byteOffset":288,"byteStride":16,"target":34962},{"buffer":0,"byteLength":288,"byteOffset":672,"byteStride":12,"target":34962},{"buffer":0,"byteLength":192,"byteOffset":960,"byteStride":8,"target":34962},{"buffer":0,"byteLength":72,"byteOffset":1152,"target":34963},{"buffer":0,"byteLength":6264,"byteOffset":1224,"byteStride":12,"target":34962},{"buffer":0,"byteLength":8352,"byteOffset":7488,"byteStride":16,"target":34962},{"buffer":0,"byteLength":6264,"byteOffset":15840,"byteStride":12,"target":34962},{"buffer":0,"byteLength":4176,"byteOffset":22104,"byteStride":8,"target":34962},{"buffer":0,"byteLength":4608,"byteOffset":26280,"target":34963},{"buffer":0,"byteLength":6264,"byteOffset":30888,"byteStride":12,"target":34962},{"buffer":0,"byteLength":8352,"byteOffset":37152,"byteStride":16,"target":34962},{"buffer":0,"byteLength":6264,"byteOffset":45504,"byteStride":12,"target":34962},{"buffer":0,"byteLength":4176,"byteOffset":51768,"byteStride":8,"target":34962},{"buffer":0,"byteLength":4608,"byteOffset":55944,"target":34963},{"buffer":0,"byteLength":6264,"byteOffset":60552,"byteStride":12,"target":34962},{"buffer":0,"byteLength":8352,"byteOffset":66816,"byteStride":16,"target":34962},{"buffer":0,"byteLength":6264,"byteOffset":75168,"byteStride":12,"target":34962},{"buffer":0,"byteLength":4176,"byteOffset":81432,"byteStride":8,"target":34962},{"buffer":0,"byteLength":4608,"byteOffset":85608,"target":34963},{"buffer":0,"byteLength":6264,"byteOffset":90216,"byteStride":12,"target":34962},{"buffer":0,"byteLength":8352,"byteOffset":96480,"byteStride":16,"target":34962},{"buffer":0,"byteLength":6264,"byteOffset":104832,"byteStride":12,"target":34962},{"buffer":0,"byteLength":4176,"byteOffset":111096,"byteStride":8,"target":34962},{"buffer":0,"byteLength":4608,"byteOffset":115272,"target":34963},{"buffer":0,"byteLength":23400,"byteOffset":119880,"byteStride":12,"target":34962},{"buffer":0,"byteLength":31200,"byteOffset":143280,"byteStride":16,"target":34962},{"buffer":0,"byteLength":23400,"byteOffset":174480,"byteStride":12,"target":34962},{"buffer":0,"byteLength":15600,"byteOffset":197880,"byteStride":8,"target":34962},{"buffer":0,"byteLength":20736,"byteOffset":213480,"target":34963}],"buffers":[{"byteLength":234216,"uri":"rover0.bin"}],"extensions":{"OMI_physics_shape":{"shapes":[{"box":{"size":[2.59999990463257,0.5,4.0]},"type":"box"}]}},"extensionsUsed":["GODOT_single_root","OMI_physics_body","OMI_physics_shape"],"materials":[{"extensions":{},"pbrMetallicRoughness":{"baseColorFactor":[0.728980481624603,0.21981842815876,0.108573712408543,1.0],"metallicFactor":0.0,"roughnessFactor":1.0}},{"extensions":{},"pbrMetallicRoughness":{"baseColorFactor":[0.0122864870354533,0.0193823575973511,0.0561284944415092,1.0],"metallicFactor":0.0,"roughnessFactor":1.0}},{}],"meshes":[{"primitives":[{"attributes":{"NORMAL":2,"POSITION":0,"TANGENT":1,"TEXCOORD_0":3},"indices":4,"material":0,"mode":4}]},{"primitives":[{"attributes":{"NORMAL":7,"POSITION":5,"TANGENT":6,"TEXCOORD_0":8},"indices":9,"material":1,"mode":4}]},{"primitives":[{"attributes":{"NORMAL":12,"POSITION":10,"TANGENT":11,"TEXCOORD_0":13},"indices":14,"material":1,"mode":4}]},{"primitives":[{"attributes":{"NORMAL":17,"POSITION":15,"TANGENT":16,"TEXCOORD_0":18},"indices":19,"material":1,"mode":4}]},{"primitives":[{"attributes":{"NORMAL":22,"POSITION":20,"TANGENT":21,"TEXCOORD_0":23},"indices":24,"material":1,"mode":4}]},{"primitives":[{"attributes":{"NORMAL":27,"POSITION":25,"TANGENT":26,"TEXCOORD_0":28},"indices":29,"material":2,"mode":4}]}],"nodes":[{"children":[1,2,3,5,7,9,11],"extensions":{"OMI_physics_body":{"motion":{"mass":200.0,"type":"dynamic"}}},"name":"VehicleBody3D"},{"extensions":{"OMI_physics_body":{"collider":{"shape":0}}},"name":"CollisionShape3D","translation":[0.0,-1.0,0.0]},{"mesh":0,"name":"MeshInstance3D","scale":[2.59999990463257,0.5,4.0],"translation":[0.0,-1.0,0.0]},{"children":[4],"name":"VehicleWheel3D","translation":[-1.49013710021973,-1.25715494155884,2.00551557540894]},{"mesh":1,"name":"MeshInstance3D2","rotation":[0.0,0.0,-0.70710676908493,0.70710676908493],"scale":[1.0,0.199999988079071,1.0]},{"children":[6],"name":"VehicleWheel3D2","translation":[-1.49013710021973,-1.25715494155884,-2.25689458847046]},{"mesh":2,"name":"MeshInstance3D3","rotation":[0.0,0.0,-0.70710676908493,0.70710676908493],"scale":[1.0,0.199999988079071,1.0]},{"children":[8],"name":"VehicleWheel3D3","translation":[1.53956270217896,-1.25715470314026,-2.25689458847046]},{"mesh":3,"name":"MeshInstance3D4","rotation":[0.0,0.0,-0.70710676908493,0.70710676908493],"scale":[1.0,0.199999988079071,1.0]},{"children":[10],"name":"VehicleWheel3D4","translation":[1.53956270217896,-1.25715494155884,2.00551557540894]},{"mesh":4,"name":"MeshInstance3D5","rotation":[0.0,0.0,-0.70710676908493,0.70710676908493],"scale":[1.0,0.199999988079071,1.0]},{"mesh":5,"name":"MeshInstance3D22","rotation":[0.70710676908493,0.0,0.0,0.70710676908493],"scale":[0.699999988079071,0.699999988079071,0.5],"translation":[0.0,-0.571552634239197,-0.593826711177826]}],"scene":0,"scenes":[{"nodes":[0]}]}